{"title":"Dragonball Evolution-AC3-5,1-DVDRip[Eng]2009","uid":5006378,"size":1464737729,"categoryP":"video","categoryS":"movies","magnet":"?xt=urn:btih:2444d280ce969c813af31d48100a5bbb2933785f&amp;dn=Dragonball+Evolution-AC3-5%2C1-DVDRip%5BEng%5D2009&amp;tr=udp%3A%2F%2Ftracker.openbittorrent.com%3A80&amp;tr=udp%3A%2F%2Fopen.demonii.com%3A1337&amp;tr=udp%3A%2F%2Ftracker.coppersurfer.tk%3A6969&amp;tr=udp%3A%2F%2Fexodus.desync.com%3A6969","seeders":0,"leechers":1,"uploader":"FatFreddy31","files":5,"time":1247749721,"description":" &lt;a href=&quot;http://www.imdb.com/title/tt1098327/&quot; rel=&quot;nofollow&quot; target=&quot;_NEW&quot;&gt;http://www.imdb.com/title/tt1098327/&lt;/a&gt;\n &lt;a href=&quot;\nhttp://www.dragonballthemovie.com/&quot; rel=&quot;nofollow&quot; target=&quot;_NEW&quot;&gt;\nhttp://www.dragonballthemovie.com/&lt;/a&gt;\n\nUser Rating:3.3/10 - 13,286 votes\n\nAction,Adventure,Fantasy,Sci-Fi,Thriller\n\nDirector:James Wong\n\nCast:Justin Chatwin/Yun-Fat Chow/Emmy Rossum/Jamie Chung, and others.\n\nPlot:\nThe story begins with Goku, who seeks out upon his adoptive grandfather Grandpa Gohan's dying request to find the great Master Roshi and gather all seven Dragon Balls. Of which he has one, in order to prevent the evil Lord Piccolo from succeeding in his desire to use the Dragon Balls to take over the world. And Goku's quest is to obtain the mystical Dragonballs before Piccolo does...\n\nInfo:\n\nCovers included.\n\nGeneral\nComplete name                    : Dragonball Evolution-AC3-5,1-DVDRip[Eng]2009.avi\nFormat                           : AVI\nFormat/Info                      : Audio Video Interleave\nFile size                        : 1.36 GiB\nDuration                         : 1h 25mn\nOverall bit rate                 : 2 284 Kbps\nWriting application              : VirtualDubMod 1.5.4.1 (build 2178/release)\nWriting library                  : VirtualDubMod build 2178/release\n\nVideo\nFormat                           : MPEG-4 Visual\nFormat profile                   : Simple@L3\nFormat settings, BVOP            : No\nFormat settings, QPel            : No\nFormat settings, GMC             : No warppoints\nFormat settings, Matrix          : Default\nCodec ID                         : XVID\nCodec ID/Hint                    : XviD\nDuration                         : 1h 25mn\nBit rate                         : 1 826 Kbps\nWidth                            : 640 pixels\nHeight                           : 272 pixels\nDisplay aspect ratio             : 2.35\nFrame rate                       : 23.976 fps\nResolution                       : 24 bits\nColorimetry                      : 4:2:0\nScan type                        : Progressive\nBits/(Pixel*Frame)               : 0.438\nStream size                      : 1.09 GiB (80%)\nWriting library                  : XviD 1.1.2 (UTC 2006-11-01)\n\nAudio\nFormat                           : AC-3\nFormat/Info                      : Audio Coding 3\nCodec ID                         : 2000\nDuration                         : 1h 25mn\nBit rate mode                    : Constant\nBit rate                         : 448 Kbps\nChannel(s)                       : 6 channels\nChannel positions                : Front: L C R, Surround: L R, LFE\nSampling rate                    : 48.0 KHz\nStream size                      : 274 MiB (20%)\nAlignment                        : Split accross interleaves\nInterleave, duration             : 42 ms (1.00 video frame)\nInterleave, preload duration     : 500 ms\n\nEnjoy...","torrent":{"xt":"urn:btih:2444d280ce969c813af31d48100a5bbb2933785f","amp;dn":"Dragonball+Evolution-AC3-5%2C1-DVDRip%5BEng%5D2009","amp;tr":["udp%3A%2F%2Ftracker.openbittorrent.com%3A80","udp%3A%2F%2Fopen.demonii.com%3A1337","udp%3A%2F%2Ftracker.coppersurfer.tk%3A6969","udp%3A%2F%2Fexodus.desync.com%3A6969"],"infoHash":"2444d280ce969c813af31d48100a5bbb2933785f","infoHashBuffer":{"type":"Buffer","data":[36,68,210,128,206,150,156,129,58,243,29,72,16,10,91,187,41,51,120,95]},"announce":[],"urlList":[]}}